<svg width="58" height="47" viewBox="0 0 58 47" fill="none" xmlns="http://www.w3.org/2000/svg">
<path d="M0 23.5C0 29.7325 2.44435 35.7099 6.79526 40.117C11.1462 44.5241 17.0472 47 23.2003 47C29.3534 47 35.2544 44.5241 39.6053 40.117C43.9563 35.7099 46.4006 29.7325 46.4006 23.5H39.1504C36.7479 23.5 34.8743 25.5393 33.9943 27.8038C33.4165 29.2905 32.5398 30.6568 31.4029 31.8086C29.2274 34.0121 26.2768 35.25 23.2003 35.25C20.1238 35.25 17.1732 34.0121 14.9977 31.8086C12.8223 29.605 11.6002 26.6163 11.6002 23.5H0Z" fill="url(#paint0_linear_1311_626)"/>
<path d="M13.3656 14.507C12.1997 17.3582 11.6002 20.414 11.6002 23.5H0C0 10.5213 10.3878 0.000152588 23.2009 0.000152588C25.2075 0.000152588 27.1548 0.258139 29.0117 0.743206C27.961 1.0174 26.9283 1.36658 25.9215 1.78893C23.1067 2.96994 20.5491 4.70085 18.3948 6.88305C16.2404 9.06524 14.5314 11.6558 13.3656 14.507Z" fill="#8EC5FB"/>
<path d="M58 23.5C58 20.4139 57.3999 17.358 56.234 14.5069C55.0681 11.6557 53.3591 9.06509 51.2048 6.88289C49.0505 4.70085 46.4929 2.96979 43.6781 1.78878C40.8633 0.607773 37.8465 0 34.7997 0C31.7531 0 28.7363 0.607926 25.9215 1.78893C23.1067 2.96994 20.5491 4.70085 18.3948 6.88305C16.2404 9.06524 14.5314 11.6558 13.3656 14.507C12.1997 17.3582 11.6002 20.414 11.6002 23.5L18.8496 23.5C21.2521 23.5 23.1257 21.4607 24.0057 19.1964C24.0307 19.1318 24.0564 19.0676 24.0826 19.0034C24.6656 17.5779 25.52 16.2825 26.5972 15.1914C27.6744 14.1004 28.9532 13.2348 30.3605 12.6443C31.7679 12.0538 33.2763 11.7499 34.7997 11.7499C36.3231 11.7499 37.8315 12.0538 39.2388 12.6443C40.6463 13.2348 41.925 14.1004 43.0023 15.1914C44.0794 16.2825 44.9339 17.5779 45.5168 19.0034C46.0998 20.429 46.4006 21.9569 46.4006 23.5L58 23.5Z" fill="url(#paint1_linear_1311_626)"/>
<path d="M57.9971 23.5C57.9971 36.4787 47.61 47 34.7969 47C32.7907 47 30.8441 46.7421 28.9874 46.2572C32.9714 45.2176 36.6467 43.1138 39.6053 40.117C43.9563 35.7099 46.4006 29.7325 46.4006 23.5H57.9971Z" fill="#7D73E5"/>
<defs>
<linearGradient id="paint0_linear_1311_626" x1="0" y1="23.5" x2="58" y2="23.5" gradientUnits="userSpaceOnUse">
<stop stop-color="#9573E5"/>
<stop offset="1" stop-color="#392FA2"/>
</linearGradient>
<linearGradient id="paint1_linear_1311_626" x1="58" y1="23.4998" x2="-1.90144e-06" y2="23.4998" gradientUnits="userSpaceOnUse">
<stop stop-color="#8EEBFB"/>
<stop offset="1" stop-color="#2C6EFB"/>
</linearGradient>
</defs>
</svg>
