<svg width="41" height="40" viewBox="0 0 41 40" fill="none" xmlns="http://www.w3.org/2000/svg">
<path d="M41 19.5C41 15.124 39.2721 10.9271 36.1965 7.83273C33.1208 4.73839 28.9494 3 24.5998 3C20.2502 3 16.0788 4.73839 13.0031 7.83273C9.92747 10.9271 8.19959 15.124 8.19959 19.5H13.3247C15.023 19.5 16.3475 18.0681 16.9696 16.4782C17.378 15.4343 17.9977 14.475 18.8014 13.6663C20.3392 12.1192 22.425 11.25 24.5998 11.25C26.7746 11.25 28.8603 12.1192 30.3982 13.6663C31.936 15.2135 32.7998 17.312 32.7998 19.5H41Z" fill="url(#paint0_linear_1206_1313)"/>
<path d="M31.5519 25.8142C32.3761 23.8123 32.7998 21.6668 32.7998 19.5H41C41 28.6127 33.6569 35.9999 24.5993 35.9999C23.1809 35.9999 21.8044 35.8188 20.4917 35.4782C21.2344 35.2857 21.9644 35.0405 22.6762 34.7439C24.6659 33.9147 26.4739 32.6994 27.9968 31.1672C29.5197 29.635 30.7278 27.8161 31.5519 25.8142Z" fill="#FBCF8E"/>
<path d="M0 19.5C-3.08107e-07 21.6669 0.424203 23.8124 1.24839 25.8143C2.07258 27.8162 3.2806 29.6351 4.80351 31.1673C6.3264 32.6994 8.13435 33.9148 10.1241 34.744C12.1139 35.5733 14.2465 36 16.4002 36C18.5539 36 20.6864 35.5732 22.6762 34.7439C24.6659 33.9147 26.4739 32.6994 27.9968 31.1672C29.5197 29.635 30.7278 27.8161 31.5519 25.8142C32.3761 23.8123 32.7998 21.6668 32.7998 19.5L27.6753 19.5C25.977 19.5 24.6525 20.9319 24.0304 22.5217C24.0128 22.567 23.9946 22.6121 23.9761 22.6572C23.564 23.6581 22.96 24.5676 22.1985 25.3337C21.4371 26.0997 20.5331 26.7075 19.5382 27.1221C18.5434 27.5367 17.4771 27.7501 16.4002 27.7501C15.3233 27.7501 14.257 27.5367 13.2622 27.1221C12.2673 26.7075 11.3633 26.0997 10.6018 25.3337C9.84039 24.5676 9.23639 23.6581 8.8243 22.6572C8.4122 21.6562 8.19959 20.5834 8.19959 19.5L0 19.5Z" fill="url(#paint1_linear_1206_1313)"/>
<path d="M0.00206487 19.5C0.00206487 10.3873 7.34466 3 16.4022 3C17.8203 3 19.1964 3.18108 20.5089 3.52153C17.6926 4.25145 15.0946 5.72861 13.0031 7.83273C9.92747 10.9271 8.19959 15.124 8.19959 19.5H0.00206487Z" fill="#73E5E2"/>
<defs>
<linearGradient id="paint0_linear_1206_1313" x1="41" y1="19.5" x2="0" y2="19.5" gradientUnits="userSpaceOnUse">
<stop stop-color="#73E5E2"/>
<stop offset="1" stop-color="#394F87"/>
</linearGradient>
<linearGradient id="paint1_linear_1206_1313" x1="1.34412e-06" y1="19.5001" x2="41" y2="19.5001" gradientUnits="userSpaceOnUse">
<stop stop-color="#FBDC8E"/>
<stop offset="1" stop-color="#FB958E"/>
</linearGradient>
</defs>
</svg>
